<?xml version="1.0" standalone="no"?>
<!DOCTYPE svg PUBLIC "-//W3C//DTD SVG 20010904//EN"
 "http://www.w3.org/TR/2001/REC-SVG-20010904/DTD/svg10.dtd">
<svg version="1.0" xmlns="http://www.w3.org/2000/svg"
 width="980.000000pt" height="858.000000pt" viewBox="0 0 980.000000 858.000000"
 preserveAspectRatio="xMidYMid meet">

<g transform="translate(0.000000,858.000000) scale(0.100000,-0.100000)"
fill="#B76330" stroke="none">
<path d="M4845 8569 c-32 -18 -45 -40 -45 -77 0 -30 12 -46 109 -140 95 -92
115 -118 148 -187 35 -74 38 -86 38 -170 0 -81 -3 -97 -33 -159 -36 -76 -71
-123 -173 -232 -79 -84 -105 -131 -125 -228 -25 -118 2 -269 77 -424 34 -71
46 -86 77 -99 32 -13 39 -13 67 0 18 9 37 29 45 46 12 29 10 38 -29 121 -56
120 -74 198 -69 285 6 90 21 118 126 230 92 98 137 165 181 267 24 58 26 74
26 193 -1 110 -4 139 -23 186 -49 124 -154 262 -264 347 -59 45 -102 59 -133
41z"/>
<path d="M2370 7733 c-28 -10 -62 -48 -88 -98 -24 -44 -27 -61 -27 -150 0
-119 20 -188 92 -310 71 -122 242 -288 411 -399 73 -48 155 -109 181 -136 157
-166 234 -445 216 -792 l-7 -137 26 -26 c34 -34 84 -34 119 1 34 34 41 105 34
333 -6 202 -32 337 -91 472 -82 190 -171 294 -356 414 -212 138 -329 254 -405
399 -38 73 -60 163 -51 211 4 18 18 49 31 69 40 59 31 116 -22 144 -23 13 -39
14 -63 5z"/>
<path d="M7529 7617 c-20 -15 -39 -51 -39 -73 0 -9 14 -39 31 -66 30 -46 31
-53 27 -119 -4 -56 -14 -87 -46 -152 -76 -153 -178 -255 -404 -404 -205 -135
-312 -268 -384 -481 -54 -157 -68 -260 -68 -482 0 -221 8 -257 63 -279 25 -11
37 -11 61 -1 51 21 54 38 51 235 -4 297 37 484 143 649 54 85 109 134 254 230
320 211 504 465 505 701 1 90 -24 165 -72 216 -30 31 -45 39 -72 39 -19 0 -41
-6 -50 -13z"/>
<path d="M4515 6336 c-107 -34 -177 -94 -222 -191 -39 -83 -39 -194 -1 -276
51 -111 137 -177 258 -200 65 -11 88 -8 198 26 l22 7 0 -330 0 -331 -42 -5
c-24 -3 -103 -8 -175 -11 -566 -23 -1203 -194 -1738 -465 -404 -204 -717 -430
-1025 -739 -722 -725 -1064 -1672 -946 -2622 16 -129 40 -208 86 -278 39 -62
141 -159 205 -197 l50 -29 -470 -5 -470 -5 -50 -27 c-68 -35 -128 -98 -162
-166 -24 -49 -28 -69 -28 -142 0 -76 4 -92 33 -152 38 -77 92 -130 171 -167
l56 -26 4635 0 4635 0 67 33 c77 38 130 92 167 171 35 75 37 201 4 273 -30 66
-69 114 -120 149 -93 64 -79 63 -638 69 l-510 5 46 27 c106 62 206 180 248
292 55 147 75 643 37 921 -81 599 -307 1119 -695 1605 -108 135 -355 385 -499
505 -631 528 -1439 863 -2292 950 -91 9 -180 19 -197 21 l-33 5 0 338 0 339
48 -18 c77 -29 132 -34 203 -16 103 27 176 84 227 181 24 45 27 61 27 150 0
86 -3 107 -24 150 -90 181 -321 247 -490 141 -37 -24 -111 -100 -111 -114 0
-5 -22 -8 -50 -7 -46 1 -52 5 -80 44 -75 102 -234 155 -355 117z m815 -1671
c683 -85 1271 -297 1784 -645 765 -518 1237 -1225 1372 -2056 24 -149 30 -536
10 -691 -8 -67 -22 -135 -30 -151 -25 -47 -104 -111 -159 -127 -45 -13 -464
-15 -3467 -15 -3782 0 -3475 -6 -3558 66 -59 50 -78 93 -93 209 -16 129 -16
491 0 620 41 330 128 616 278 916 148 296 332 549 583 799 623 624 1481 1005
2450 1089 155 14 681 5 830 -14z m4193 -4159 c72 -30 117 -121 97 -196 -12
-46 -51 -95 -91 -115 -24 -13 -609 -15 -4629 -15 -4020 0 -4605 2 -4629 15
-70 35 -110 123 -91 195 13 48 54 98 95 116 46 20 9200 20 9248 0z"/>
<path d="M3900 4211 c-887 -369 -1508 -1029 -1814 -1931 -68 -202 -136 -511
-136 -622 0 -57 33 -92 87 -92 52 0 79 36 88 116 20 190 93 468 182 693 307
781 899 1374 1685 1685 115 46 134 60 144 106 4 24 0 37 -21 62 -37 44 -74 41
-215 -17z"/>
</g>
</svg>
